<svg id="Line" height="512" viewBox="0 0 64 64" width="512" xmlns="http://www.w3.org/2000/svg">
    <g fill="rgb(0,0,0)">
        <path fill="#ffffff" d="m42.6748 56.23535h-36.59863a.07638.07638 0 0 1 -.07617-.07666v-14.47363l17.7959-17.79639a.08828.08828 0 0 1 .12549-.00049l16.25049 16.25049a.99989.99989 0 1 0 1.41406-1.41406l-4.36359-4.36361 8.00128-7.99188a.09987.09987 0 0 1 .125 0l10.88672 10.89675v5.30884a1 1 0 0 0 2 0v-36.49854a2.07856 2.07856 0 0 0 -2.07617-2.07617h-50.08301a2.07824 2.07824 0 0 0 -2.07617 2.07617v50.08252a2.07866 2.07866 0 0 0 2.07617 2.07666h36.59863a1 1 0 0 0 0-2zm-36.59863-50.23535h50.083a.07627.07627 0 0 1 .07617.07617v28.36083l-9.47265-9.481a2.08828 2.08828 0 0 0 -2.95313-.00146l-8.00176 7.99193-10.47235-10.47235a2.09005 2.09005 0 0 0 -2.95313 0l-16.38232 16.38275v-32.7807a.07627.07627 0 0 1 .07617-.07617z"/>
        <path fill="#ffffff" d="m36.24512 23.41162a4.99024 4.99024 0 1 0 -4.98975-4.99023 4.99578 4.99578 0 0 0 4.98975 4.99023zm0-7.98047a2.99024 2.99024 0 1 1 -2.99024 2.99024 2.9938 2.9938 0 0 1 2.99024-2.99024z"/>
        <path fill="#ffffff" d="m59 51.5415h-5.458v-5.4585a1 1 0 0 0 -2 0v5.4585h-5.459a1 1 0 0 0 0 2h5.459v5.4585a1 1 0 0 0 2 0v-5.4585h5.458a1 1 0 0 0 0-2z"/>
    </g>
</svg>