<?xml version="1.0" encoding="UTF-8" standalone="no"?>
<!-- Created with Inkscape (http://www.inkscape.org/) -->

<svg
   version="1.1"
   id="svg6996"
   xml:space="preserve"
   width="682.66669"
   height="682.66669"
   viewBox="0 0 682.66669 682.66669"
   xmlns="http://www.w3.org/2000/svg"
   xmlns:svg="http://www.w3.org/2000/svg"><defs
     id="defs7000"><clipPath
       clipPathUnits="userSpaceOnUse"
       id="clipPath7010"><path
         d="M 0,512 H 512 V 0 H 0 Z"
         id="path7008" /></clipPath></defs><g
     id="g7002"
     transform="matrix(1.3333333,0,0,-1.3333333,0,682.66667)"><g
       id="g7004"><g
         id="g7006"
         clip-path="url(#clipPath7010)"><g
           id="g7012"
           transform="translate(233.5,184.75)"><path
             d="m 0,0 h -211 c -8.25,0 -15,6.75 -15,15 v 112.5 c 0,8.25 6.75,15 15,15 h 467 c 8.25,0 15,-6.751 15,-15 V 15 C 271,6.75 264.249,0 256,0 H 45 M 30,0 H 15"
             style="fill:none;stroke:#ffffff;stroke-width:15;stroke-linecap:butt;stroke-linejoin:miter;stroke-miterlimit:22.926;stroke-dasharray:none;stroke-opacity:1"
             id="path7014" /></g><g
           id="g7016"
           transform="translate(44.2114,327.25)"><path
             d="m 0,0 -1.471,51.875 58.523,31.611 31.611,58.523 66.488,-1.885 56.638,34.876 56.637,-34.876 66.488,1.885 L 366.525,83.486 425.047,51.875 423.578,0 m 0,-142.5 1.469,-51.875 -58.522,-31.611 -31.611,-58.523 -66.488,1.885 -56.637,-34.876 -56.638,34.876 -66.488,-1.885 -31.611,58.523 -58.523,31.611 L 0,-142.5"
             style="fill:none;stroke:#ffffff;stroke-width:15;stroke-linecap:butt;stroke-linejoin:miter;stroke-miterlimit:22.926;stroke-dasharray:none;stroke-opacity:1"
             id="path7018" /></g><g
           id="g7020"
           transform="translate(163.4575,410.4092)"><path
             d="m 0,0 c 27.041,16.245 58.699,25.591 92.542,25.591 74.1,0 137.732,-44.78 165.336,-108.75 m -330.671,0 c 12.986,30.096 33.949,55.941 60.222,74.877 m 270.449,-217.377 c -27.604,-63.971 -91.236,-108.75 -165.336,-108.75 -74.099,0 -137.731,44.779 -165.335,108.75"
             style="fill:none;stroke:#ffffff;stroke-width:15;stroke-linecap:butt;stroke-linejoin:miter;stroke-miterlimit:22.926;stroke-dasharray:none;stroke-opacity:1"
             id="path7022" /></g><g
           id="g7024"
           transform="translate(338.499,368.5)"><path
             d="m 0,0 v 15 m -30,10e-4 v 15"
             style="fill:none;stroke:#ffffff;stroke-width:15;stroke-linecap:butt;stroke-linejoin:miter;stroke-miterlimit:2.613;stroke-dasharray:none;stroke-opacity:1"
             id="path7026" /></g><g
           id="g7028"
           transform="translate(224.7354,226.4277)"><path
             d="M 0,0 22.807,59.884 25.355,59.887 47.955,0"
             style="fill:none;stroke:#ffffff;stroke-width:15;stroke-linecap:square;stroke-linejoin:miter;stroke-miterlimit:10;stroke-dasharray:none;stroke-opacity:1"
             id="path7030" /></g><g
           id="g7032"
           transform="translate(231.8481,241.3418)"><path
             d="M 0,0 H 33.843"
             style="fill:none;stroke:#ffffff;stroke-width:15;stroke-linecap:round;stroke-linejoin:bevel;stroke-miterlimit:10;stroke-dasharray:none;stroke-opacity:1"
             id="path7034" /></g><g
           id="g7036"
           transform="translate(319.5703,225.6885)"><path
             d="M 0,0 V 60.626 L 2.664,60.625 40.17,0.936 h 2.665 v 59.803"
             style="fill:none;stroke:#ffffff;stroke-width:15;stroke-linecap:square;stroke-linejoin:miter;stroke-miterlimit:10;stroke-dasharray:none;stroke-opacity:1"
             id="path7038" /></g><g
           id="g7040"
           transform="translate(447.1035,256.957)"><path
             d="m 0,0 c 0,-16.24 -9.014,-29.221 -23.314,-29.472 h -17.182 v 58.943 h 16.693 C -8.117,29.471 0,16.241 0,0 Z"
             style="fill:none;stroke:#ffffff;stroke-width:15;stroke-linecap:square;stroke-linejoin:miter;stroke-miterlimit:10;stroke-dasharray:none;stroke-opacity:1"
             id="path7042" /></g><g
           id="g7044"
           transform="translate(67.896,258.3418)"><path
             d="m 0,0 h 17.725 c 9.029,0 16.349,-7.319 16.349,-16.349 0,-9.029 -7.32,-16.422 -16.349,-16.422 H -3 v 60.74 h 17.643 c 7.719,0 13.977,-6.257 13.977,-13.976 C 28.62,6.273 22.363,0 14.644,0"
             style="fill:none;stroke:#ffffff;stroke-width:15;stroke-linecap:square;stroke-linejoin:miter;stroke-miterlimit:10;stroke-dasharray:none;stroke-opacity:1"
             id="path7046" /></g><g
           id="g7048"
           transform="translate(157.1504,250.7314)"><path
             d="M 0,0 20.016,-23.661"
             style="fill:none;stroke:#ffffff;stroke-width:15;stroke-linecap:square;stroke-linejoin:round;stroke-miterlimit:10;stroke-dasharray:none;stroke-opacity:1"
             id="path7050" /></g><g
           id="g7052"
           transform="translate(149.3042,254.6699)"><path
             d="m 0,0 13.028,0.07 c 9.034,0 16.679,7.068 16.679,15.785 0,8.718 -7.645,15.786 -16.679,15.786 h -16.15 l -0.01,-60.74"
             style="fill:none;stroke:#ffffff;stroke-width:15;stroke-linecap:square;stroke-linejoin:miter;stroke-miterlimit:10;stroke-dasharray:none;stroke-opacity:1"
             id="path7054" /></g></g></g></g></svg>
